<svg xmlns="http://www.w3.org/2000/svg" style="cursor: move;" viewBox="683.32 315.67 259.73 306.43"><g transform="translate(-663.3052887414303,-277.1477510892163) scale(1.9453098948245662)"><path class="link" style="stroke-width: 1.19073px; stroke-opacity: 0.595367; stroke: rgb(80, 80, 80); fill: none;" marker-end="" d="M705,317.5, 759,361.5"/><path class="link" style="stroke-width: 0.886969px; stroke-opacity: 0.443485; stroke: rgb(80, 80, 80); fill: none;" marker-end="" d="M705,361.5, 759,361.5"/><path class="link" style="stroke-width: 1.30641px; stroke-opacity: 0.653205; stroke: rgb(80, 80, 80); fill: none;" marker-end="" d="M705,405.5, 759,361.5"/><path class="link" style="stroke-width: 0.330738px; stroke-opacity: 0.165369; stroke: rgb(80, 80, 80); fill: none;" marker-end="" d="M705,449.5, 759,361.5"/><path class="link" style="stroke-width: 1.56702px; stroke-opacity: 0.78351; stroke: rgb(80, 80, 80); fill: none;" marker-end="" d="M759,317.5, 813,361.5"/><path class="link" style="stroke-width: 1.8045px; stroke-opacity: 0.902249; stroke: rgb(80, 80, 80); fill: none;" marker-end="" d="M759,317.5, 813,405.5"/><path class="link" style="stroke-width: 1.05618px; stroke-opacity: 0.528089; stroke: rgb(80, 80, 80); fill: none;" marker-end="" d="M759,361.5, 813,361.5"/><path class="link" style="stroke-width: 0.267154px; stroke-opacity: 0.133577; stroke: rgb(80, 80, 80); fill: none;" marker-end="" d="M759,361.5, 813,405.5"/><path class="link" style="stroke-width: 0.652038px; stroke-opacity: 0.326019; stroke: rgb(80, 80, 80); fill: none;" marker-end="" d="M705,317.5, 759,405.5"/><path class="link" style="stroke-width: 1.98559px; stroke-opacity: 0.992797; stroke: rgb(80, 80, 80); fill: none;" marker-end="" d="M705,361.5, 759,405.5"/><path class="link" style="stroke-width: 0.709314px; stroke-opacity: 0.354657; stroke: rgb(80, 80, 80); fill: none;" marker-end="" d="M705,405.5, 759,405.5"/><path class="link" style="stroke-width: 0.926174px; stroke-opacity: 0.463087; stroke: rgb(80, 80, 80); fill: none;" marker-end="" d="M705,449.5, 759,405.5"/><path class="link" style="stroke-width: 0.99172px; stroke-opacity: 0.49586; stroke: rgb(80, 80, 80); fill: none;" marker-end="" d="M759,405.5, 813,361.5"/><path class="link" style="stroke-width: 0.984144px; stroke-opacity: 0.492072; stroke: rgb(80, 80, 80); fill: none;" marker-end="" d="M759,405.5, 813,405.5"/><path class="link" style="stroke-width: 0.821601px; stroke-opacity: 0.4108; stroke: rgb(80, 80, 80); fill: none;" marker-end="" d="M705,317.5, 759,449.5"/><path class="link" style="stroke-width: 0.668078px; stroke-opacity: 0.334039; stroke: rgb(80, 80, 80); fill: none;" marker-end="" d="M705,361.5, 759,449.5"/><path class="link" style="stroke-width: 0.220569px; stroke-opacity: 0.110285; stroke: rgb(80, 80, 80); fill: none;" marker-end="" d="M705,405.5, 759,449.5"/><path class="link" style="stroke-width: 1.59174px; stroke-opacity: 0.795871; stroke: rgb(80, 80, 80); fill: none;" marker-end="" d="M705,449.5, 759,449.5"/><path class="link" style="stroke-width: 1.55232px; stroke-opacity: 0.776158; stroke: rgb(80, 80, 80); fill: none;" marker-end="" d="M759,449.5, 813,361.5"/><path class="link" style="stroke-width: 0.704484px; stroke-opacity: 0.352242; stroke: rgb(80, 80, 80); fill: none;" marker-end="" d="M759,449.5, 813,405.5"/><circle r="12" class="node" id="0_0" style="fill: rgb(0, 0, 0); stroke: rgb(0, 0, 0);" cx="705" cy="317.5"/><circle r="12" class="node" id="0_1" style="fill: rgb(0, 0, 0); stroke: rgb(0, 0, 0);" cx="705" cy="361.5"/><circle r="12" class="node" id="0_2" style="fill: rgb(0, 0, 0); stroke: rgb(0, 0, 0);" cx="705" cy="405.5"/><circle r="12" class="node" id="0_3" style="fill: rgb(0, 0, 0); stroke: rgb(0, 0, 0);" cx="705" cy="449.5"/><circle r="12" class="node" id="1_0" style="fill: rgb(0, 0, 0); stroke: rgb(0, 0, 0);" cx="759" cy="317.5"/><circle r="12" class="node" id="1_1" style="fill: rgb(0, 0, 0); stroke: rgb(0, 0, 0);" cx="759" cy="361.5"/><circle r="12" class="node" id="1_2" style="fill: rgb(0, 0, 0); stroke: rgb(0, 0, 0);" cx="759" cy="405.5"/><circle r="12" class="node" id="1_3" style="fill: rgb(0, 0, 0); stroke: rgb(0, 0, 0);" cx="759" cy="449.5"/><circle r="12" class="node" id="2_0" style="fill: rgb(0, 0, 0); stroke: rgb(0, 0, 0);" cx="813" cy="361.5"/><circle r="12" class="node" id="2_1" style="fill: rgb(0, 0, 0); stroke: rgb(0, 0, 0);" cx="813" cy="405.5"/><text class="text" dy=".35em" style="font-size: 12px;" x="670" y="493.5"/><text class="text" dy=".35em" style="font-size: 12px;" x="724" y="493.5"/><text class="text" dy=".35em" style="font-size: 12px;" x="778" y="493.5"/></g><defs><marker id="arrow" viewBox="0 -5 10 10" markerWidth="7" markerHeight="7" orient="auto" refX="45.599999999999994"><path d="M0,-5L10,0L0,5" style="stroke: rgb(80, 80, 80); fill: none;"/></marker></defs></svg>