<svg xmlns="http://www.w3.org/2000/svg" style="cursor: move;" viewBox="727.98 317.02 296.58 349.9"><g transform="translate(-810.3885176253045,-360.2534969611813) scale(2.222217457310183)"><path class="link" style="stroke-width: 1.92476px; stroke-opacity: 0.962379; stroke: rgb(80, 80, 80); fill: none;" marker-end="" d="M705,317.5, 759,405.5"/><path class="link" style="stroke-width: 1.87951px; stroke-opacity: 0.939754; stroke: rgb(80, 80, 80); fill: none;" marker-end="" d="M705,361.5, 759,405.5"/><path class="link" style="stroke-width: 0.164559px; stroke-opacity: 0.0822794; stroke: rgb(80, 80, 80); fill: none;" marker-end="" d="M705,405.5, 759,405.5"/><path class="link" style="stroke-width: 1.59441px; stroke-opacity: 0.797203; stroke: rgb(80, 80, 80); fill: none;" marker-end="" d="M705,449.5, 759,405.5"/><path class="link" style="stroke-width: 0.732713px; stroke-opacity: 0.366356; stroke: rgb(80, 80, 80); fill: none;" marker-end="" d="M759,361.5, 813,361.5"/><path class="link" style="stroke-width: 0.896011px; stroke-opacity: 0.448006; stroke: rgb(80, 80, 80); fill: none;" marker-end="" d="M759,361.5, 813,405.5"/><path class="link" style="stroke-width: 0.837765px; stroke-opacity: 0.418882; stroke: rgb(80, 80, 80); fill: none;" marker-end="" d="M759,405.5, 813,361.5"/><path class="link" style="stroke-width: 0.173708px; stroke-opacity: 0.086854; stroke: rgb(80, 80, 80); fill: none;" marker-end="" d="M759,405.5, 813,405.5"/><circle r="12" class="node" id="0_0" style="fill: rgb(0, 0, 0); stroke: rgb(0, 0, 0);" cx="705" cy="317.5"/><circle r="12" class="node" id="0_1" style="fill: rgb(0, 0, 0); stroke: rgb(0, 0, 0);" cx="705" cy="361.5"/><circle r="12" class="node" id="0_2" style="fill: rgb(0, 0, 0); stroke: rgb(0, 0, 0);" cx="705" cy="405.5"/><circle r="12" class="node" id="0_3" style="fill: rgb(0, 0, 0); stroke: rgb(0, 0, 0);" cx="705" cy="449.5"/><circle r="12" class="node" id="1_0" style="fill: rgb(0, 0, 0); stroke: rgb(0, 0, 0);" cx="759" cy="361.5"/><circle r="12" class="node" id="1_1" style="fill: rgb(0, 0, 0); stroke: rgb(0, 0, 0);" cx="759" cy="405.5"/><circle r="12" class="node" id="2_0" style="fill: rgb(0, 0, 0); stroke: rgb(0, 0, 0);" cx="813" cy="361.5"/><circle r="12" class="node" id="2_1" style="fill: rgb(0, 0, 0); stroke: rgb(0, 0, 0);" cx="813" cy="405.5"/><text class="text" dy=".35em" style="font-size: 12px;" x="670" y="493.5"/><text class="text" dy=".35em" style="font-size: 12px;" x="724" y="493.5"/><text class="text" dy=".35em" style="font-size: 12px;" x="778" y="493.5"/></g><defs><marker id="arrow" viewBox="0 -5 10 10" markerWidth="7" markerHeight="7" orient="auto" refX="45.599999999999994"><path d="M0,-5L10,0L0,5" style="stroke: rgb(80, 80, 80); fill: none;"/></marker></defs></svg>