<svg xmlns="http://www.w3.org/2000/svg" style="cursor: move;" viewBox="683.32 315.67 259.73 306.43"><g transform="translate(-663.3052887414303,-277.1477510892163) scale(1.9453098948245662)"><path class="link" style="stroke-width: 0.835507px; stroke-opacity: 0.417753; stroke: rgb(80, 80, 80); fill: none;" marker-end="" d="M705,317.5, 759,361.5"/><path class="link" style="stroke-width: 0.770201px; stroke-opacity: 0.385101; stroke: rgb(80, 80, 80); fill: none;" marker-end="" d="M705,361.5, 759,361.5"/><path class="link" style="stroke-width: 1.73168px; stroke-opacity: 0.86584; stroke: rgb(80, 80, 80); fill: none;" marker-end="" d="M705,405.5, 759,361.5"/><path class="link" style="stroke-width: 0.249104px; stroke-opacity: 0.124552; stroke: rgb(80, 80, 80); fill: none;" marker-end="" d="M705,449.5, 759,361.5"/><path class="link" style="stroke-width: 1.1174px; stroke-opacity: 0.558699; stroke: rgb(80, 80, 80); fill: none;" marker-end="" d="M759,317.5, 813,361.5"/><path class="link" style="stroke-width: 0.757261px; stroke-opacity: 0.37863; stroke: rgb(80, 80, 80); fill: none;" marker-end="" d="M759,317.5, 813,405.5"/><path class="link" style="stroke-width: 1.56657px; stroke-opacity: 0.783287; stroke: rgb(80, 80, 80); fill: none;" marker-end="" d="M759,361.5, 813,361.5"/><path class="link" style="stroke-width: 0.716156px; stroke-opacity: 0.358078; stroke: rgb(80, 80, 80); fill: none;" marker-end="" d="M759,361.5, 813,405.5"/><path class="link" style="stroke-width: 1.87695px; stroke-opacity: 0.938476; stroke: rgb(80, 80, 80); fill: none;" marker-end="" d="M705,317.5, 759,405.5"/><path class="link" style="stroke-width: 1.98633px; stroke-opacity: 0.993164; stroke: rgb(80, 80, 80); fill: none;" marker-end="" d="M705,361.5, 759,405.5"/><path class="link" style="stroke-width: 1.87238px; stroke-opacity: 0.936188; stroke: rgb(80, 80, 80); fill: none;" marker-end="" d="M705,405.5, 759,405.5"/><path class="link" style="stroke-width: 0.865243px; stroke-opacity: 0.432621; stroke: rgb(80, 80, 80); fill: none;" marker-end="" d="M705,449.5, 759,405.5"/><path class="link" style="stroke-width: 0.898998px; stroke-opacity: 0.449499; stroke: rgb(80, 80, 80); fill: none;" marker-end="" d="M759,405.5, 813,361.5"/><path class="link" style="stroke-width: 0.824605px; stroke-opacity: 0.412302; stroke: rgb(80, 80, 80); fill: none;" marker-end="" d="M759,405.5, 813,405.5"/><path class="link" style="stroke-width: 1.00829px; stroke-opacity: 0.504143; stroke: rgb(80, 80, 80); fill: none;" marker-end="" d="M705,317.5, 759,449.5"/><path class="link" style="stroke-width: 1.52471px; stroke-opacity: 0.762354; stroke: rgb(80, 80, 80); fill: none;" marker-end="" d="M705,361.5, 759,449.5"/><path class="link" style="stroke-width: 1.35752px; stroke-opacity: 0.67876; stroke: rgb(80, 80, 80); fill: none;" marker-end="" d="M705,405.5, 759,449.5"/><path class="link" style="stroke-width: 1.823px; stroke-opacity: 0.9115; stroke: rgb(80, 80, 80); fill: none;" marker-end="" d="M705,449.5, 759,449.5"/><path class="link" style="stroke-width: 0.0542729px; stroke-opacity: 0.0271365; stroke: rgb(80, 80, 80); fill: none;" marker-end="" d="M759,449.5, 813,361.5"/><path class="link" style="stroke-width: 1.08014px; stroke-opacity: 0.540071; stroke: rgb(80, 80, 80); fill: none;" marker-end="" d="M759,449.5, 813,405.5"/><circle r="12" class="node" id="0_0" style="fill: rgb(0, 0, 0); stroke: rgb(0, 0, 0);" cx="705" cy="317.5"/><circle r="12" class="node" id="0_1" style="fill: rgb(0, 0, 0); stroke: rgb(0, 0, 0);" cx="705" cy="361.5"/><circle r="12" class="node" id="0_2" style="fill: rgb(0, 0, 0); stroke: rgb(0, 0, 0);" cx="705" cy="405.5"/><circle r="12" class="node" id="0_3" style="fill: rgb(0, 0, 0); stroke: rgb(0, 0, 0);" cx="705" cy="449.5"/><circle r="12" class="node" id="1_0" style="fill: rgb(0, 0, 0); stroke: rgb(0, 0, 0);" cx="759" cy="317.5"/><circle r="12" class="node" id="1_1" style="fill: rgb(0, 0, 0); stroke: rgb(0, 0, 0);" cx="759" cy="361.5"/><circle r="12" class="node" id="1_2" style="fill: rgb(0, 0, 0); stroke: rgb(0, 0, 0);" cx="759" cy="405.5"/><circle r="12" class="node" id="1_3" style="fill: rgb(0, 0, 0); stroke: rgb(0, 0, 0);" cx="759" cy="449.5"/><circle r="12" class="node" id="2_0" style="fill: rgb(0, 0, 0); stroke: rgb(0, 0, 0);" cx="813" cy="361.5"/><circle r="12" class="node" id="2_1" style="fill: rgb(0, 0, 0); stroke: rgb(0, 0, 0);" cx="813" cy="405.5"/><text class="text" dy=".35em" style="font-size: 12px;" x="670" y="493.5"/><text class="text" dy=".35em" style="font-size: 12px;" x="724" y="493.5"/><text class="text" dy=".35em" style="font-size: 12px;" x="778" y="493.5"/></g><defs><marker id="arrow" viewBox="0 -5 10 10" markerWidth="7" markerHeight="7" orient="auto" refX="45.599999999999994"><path d="M0,-5L10,0L0,5" style="stroke: rgb(80, 80, 80); fill: none;"/></marker></defs></svg>