<svg xmlns="http://www.w3.org/2000/svg" style="cursor: move;" viewBox="683.32 315.67 259.73 306.43"><g transform="translate(-663.3052887414303,-277.1477510892163) scale(1.9453098948245662)"><path class="link" style="stroke-width: 0.708324px; stroke-opacity: 0.354162; stroke: rgb(80, 80, 80); fill: none;" marker-end="" d="M705,317.5, 759,361.5"/><path class="link" style="stroke-width: 0.174188px; stroke-opacity: 0.0870938; stroke: rgb(80, 80, 80); fill: none;" marker-end="" d="M705,361.5, 759,361.5"/><path class="link" style="stroke-width: 1.28519px; stroke-opacity: 0.642593; stroke: rgb(80, 80, 80); fill: none;" marker-end="" d="M705,405.5, 759,361.5"/><path class="link" style="stroke-width: 0.255649px; stroke-opacity: 0.127824; stroke: rgb(80, 80, 80); fill: none;" marker-end="" d="M705,449.5, 759,361.5"/><path class="link" style="stroke-width: 1.03756px; stroke-opacity: 0.518782; stroke: rgb(80, 80, 80); fill: none;" marker-end="" d="M759,317.5, 813,361.5"/><path class="link" style="stroke-width: 1.22993px; stroke-opacity: 0.614963; stroke: rgb(80, 80, 80); fill: none;" marker-end="" d="M759,317.5, 813,405.5"/><path class="link" style="stroke-width: 1.61621px; stroke-opacity: 0.808105; stroke: rgb(80, 80, 80); fill: none;" marker-end="" d="M759,361.5, 813,361.5"/><path class="link" style="stroke-width: 0.593344px; stroke-opacity: 0.296672; stroke: rgb(80, 80, 80); fill: none;" marker-end="" d="M759,361.5, 813,405.5"/><path class="link" style="stroke-width: 1.29512px; stroke-opacity: 0.64756; stroke: rgb(80, 80, 80); fill: none;" marker-end="" d="M705,317.5, 759,405.5"/><path class="link" style="stroke-width: 1.19402px; stroke-opacity: 0.597012; stroke: rgb(80, 80, 80); fill: none;" marker-end="" d="M705,361.5, 759,405.5"/><path class="link" style="stroke-width: 0.843076px; stroke-opacity: 0.421538; stroke: rgb(80, 80, 80); fill: none;" marker-end="" d="M705,405.5, 759,405.5"/><path class="link" style="stroke-width: 1.08886px; stroke-opacity: 0.544429; stroke: rgb(80, 80, 80); fill: none;" marker-end="" d="M705,449.5, 759,405.5"/><path class="link" style="stroke-width: 1.22001px; stroke-opacity: 0.610006; stroke: rgb(80, 80, 80); fill: none;" marker-end="" d="M759,405.5, 813,361.5"/><path class="link" style="stroke-width: 1.1339px; stroke-opacity: 0.566951; stroke: rgb(80, 80, 80); fill: none;" marker-end="" d="M759,405.5, 813,405.5"/><path class="link" style="stroke-width: 0.490349px; stroke-opacity: 0.245174; stroke: rgb(80, 80, 80); fill: none;" marker-end="" d="M705,317.5, 759,449.5"/><path class="link" style="stroke-width: 0.413335px; stroke-opacity: 0.206667; stroke: rgb(80, 80, 80); fill: none;" marker-end="" d="M705,361.5, 759,449.5"/><path class="link" style="stroke-width: 1.49986px; stroke-opacity: 0.749932; stroke: rgb(80, 80, 80); fill: none;" marker-end="" d="M705,405.5, 759,449.5"/><path class="link" style="stroke-width: 0.175449px; stroke-opacity: 0.0877247; stroke: rgb(80, 80, 80); fill: none;" marker-end="" d="M705,449.5, 759,449.5"/><path class="link" style="stroke-width: 1.33123px; stroke-opacity: 0.665616; stroke: rgb(80, 80, 80); fill: none;" marker-end="" d="M759,449.5, 813,361.5"/><path class="link" style="stroke-width: 1.95484px; stroke-opacity: 0.977418; stroke: rgb(80, 80, 80); fill: none;" marker-end="" d="M759,449.5, 813,405.5"/><circle r="12" class="node" id="0_0" style="fill: rgb(0, 0, 0); stroke: rgb(0, 0, 0);" cx="705" cy="317.5"/><circle r="12" class="node" id="0_1" style="fill: rgb(0, 0, 0); stroke: rgb(0, 0, 0);" cx="705" cy="361.5"/><circle r="12" class="node" id="0_2" style="fill: rgb(0, 0, 0); stroke: rgb(0, 0, 0);" cx="705" cy="405.5"/><circle r="12" class="node" id="0_3" style="fill: rgb(0, 0, 0); stroke: rgb(0, 0, 0);" cx="705" cy="449.5"/><circle r="12" class="node" id="1_0" style="fill: rgb(0, 0, 0); stroke: rgb(0, 0, 0);" cx="759" cy="317.5"/><circle r="12" class="node" id="1_1" style="fill: rgb(0, 0, 0); stroke: rgb(0, 0, 0);" cx="759" cy="361.5"/><circle r="12" class="node" id="1_2" style="fill: rgb(0, 0, 0); stroke: rgb(0, 0, 0);" cx="759" cy="405.5"/><circle r="12" class="node" id="1_3" style="fill: rgb(0, 0, 0); stroke: rgb(0, 0, 0);" cx="759" cy="449.5"/><circle r="12" class="node" id="2_0" style="fill: rgb(0, 0, 0); stroke: rgb(0, 0, 0);" cx="813" cy="361.5"/><circle r="12" class="node" id="2_1" style="fill: rgb(0, 0, 0); stroke: rgb(0, 0, 0);" cx="813" cy="405.5"/><text class="text" dy=".35em" style="font-size: 12px;" x="670" y="493.5"/><text class="text" dy=".35em" style="font-size: 12px;" x="724" y="493.5"/><text class="text" dy=".35em" style="font-size: 12px;" x="778" y="493.5"/></g><defs><marker id="arrow" viewBox="0 -5 10 10" markerWidth="7" markerHeight="7" orient="auto" refX="45.599999999999994"><path d="M0,-5L10,0L0,5" style="stroke: rgb(80, 80, 80); fill: none;"/></marker></defs></svg>