<svg xmlns="http://www.w3.org/2000/svg" style="cursor: move;" viewBox="727.98 317.02 296.58 349.9"><g transform="translate(-810.3885176253045,-360.2534969611813) scale(2.222217457310183)"><path class="link" style="stroke-width: 0.0454546px; stroke-opacity: 0.0227273; stroke: rgb(80, 80, 80); fill: none;" marker-end="" d="M705,317.5, 759,405.5"/><path class="link" style="stroke-width: 0.20472px; stroke-opacity: 0.10236; stroke: rgb(80, 80, 80); fill: none;" marker-end="" d="M705,361.5, 759,405.5"/><path class="link" style="stroke-width: 0.853336px; stroke-opacity: 0.426668; stroke: rgb(80, 80, 80); fill: none;" marker-end="" d="M705,405.5, 759,405.5"/><path class="link" style="stroke-width: 1.69712px; stroke-opacity: 0.848559; stroke: rgb(80, 80, 80); fill: none;" marker-end="" d="M705,449.5, 759,405.5"/><path class="link" style="stroke-width: 0.162702px; stroke-opacity: 0.0813512; stroke: rgb(80, 80, 80); fill: none;" marker-end="" d="M759,361.5, 813,361.5"/><path class="link" style="stroke-width: 1.5542px; stroke-opacity: 0.777101; stroke: rgb(80, 80, 80); fill: none;" marker-end="" d="M759,361.5, 813,405.5"/><path class="link" style="stroke-width: 0.794102px; stroke-opacity: 0.397051; stroke: rgb(80, 80, 80); fill: none;" marker-end="" d="M759,405.5, 813,361.5"/><path class="link" style="stroke-width: 1.68403px; stroke-opacity: 0.842013; stroke: rgb(80, 80, 80); fill: none;" marker-end="" d="M759,405.5, 813,405.5"/><circle r="12" class="node" id="0_0" style="fill: rgb(0, 0, 0); stroke: rgb(0, 0, 0);" cx="705" cy="317.5"/><circle r="12" class="node" id="0_1" style="fill: rgb(0, 0, 0); stroke: rgb(0, 0, 0);" cx="705" cy="361.5"/><circle r="12" class="node" id="0_2" style="fill: rgb(0, 0, 0); stroke: rgb(0, 0, 0);" cx="705" cy="405.5"/><circle r="12" class="node" id="0_3" style="fill: rgb(0, 0, 0); stroke: rgb(0, 0, 0);" cx="705" cy="449.5"/><circle r="12" class="node" id="1_0" style="fill: rgb(0, 0, 0); stroke: rgb(0, 0, 0);" cx="759" cy="361.5"/><circle r="12" class="node" id="1_1" style="fill: rgb(0, 0, 0); stroke: rgb(0, 0, 0);" cx="759" cy="405.5"/><circle r="12" class="node" id="2_0" style="fill: rgb(0, 0, 0); stroke: rgb(0, 0, 0);" cx="813" cy="361.5"/><circle r="12" class="node" id="2_1" style="fill: rgb(0, 0, 0); stroke: rgb(0, 0, 0);" cx="813" cy="405.5"/><text class="text" dy=".35em" style="font-size: 12px;" x="670" y="493.5"/><text class="text" dy=".35em" style="font-size: 12px;" x="724" y="493.5"/><text class="text" dy=".35em" style="font-size: 12px;" x="778" y="493.5"/></g><defs><marker id="arrow" viewBox="0 -5 10 10" markerWidth="7" markerHeight="7" orient="auto" refX="45.599999999999994"><path d="M0,-5L10,0L0,5" style="stroke: rgb(80, 80, 80); fill: none;"/></marker></defs></svg>