<svg xmlns="http://www.w3.org/2000/svg" style="cursor: move;" viewBox="727.98 317.02 296.58 349.9"><g transform="translate(-810.3885176253045,-360.2534969611813) scale(2.222217457310183)"><path class="link" style="stroke-width: 0.538582px; stroke-opacity: 0.269291; stroke: rgb(80, 80, 80); fill: none;" marker-end="" d="M705,317.5, 759,361.5"/><path class="link" style="stroke-width: 1.2557px; stroke-opacity: 0.62785; stroke: rgb(80, 80, 80); fill: none;" marker-end="" d="M705,361.5, 759,361.5"/><path class="link" style="stroke-width: 1.14813px; stroke-opacity: 0.574066; stroke: rgb(80, 80, 80); fill: none;" marker-end="" d="M705,405.5, 759,361.5"/><path class="link" style="stroke-width: 1.29226px; stroke-opacity: 0.646131; stroke: rgb(80, 80, 80); fill: none;" marker-end="" d="M705,449.5, 759,361.5"/><path class="link" style="stroke-width: 0.207704px; stroke-opacity: 0.103852; stroke: rgb(80, 80, 80); fill: none;" marker-end="" d="M759,317.5, 813,361.5"/><path class="link" style="stroke-width: 0.512372px; stroke-opacity: 0.256186; stroke: rgb(80, 80, 80); fill: none;" marker-end="" d="M759,317.5, 813,405.5"/><path class="link" style="stroke-width: 1.11159px; stroke-opacity: 0.555795; stroke: rgb(80, 80, 80); fill: none;" marker-end="" d="M759,361.5, 813,361.5"/><path class="link" style="stroke-width: 0.621496px; stroke-opacity: 0.310748; stroke: rgb(80, 80, 80); fill: none;" marker-end="" d="M759,361.5, 813,405.5"/><path class="link" style="stroke-width: 0.979104px; stroke-opacity: 0.489552; stroke: rgb(80, 80, 80); fill: none;" marker-end="" d="M705,317.5, 759,405.5"/><path class="link" style="stroke-width: 1.45222px; stroke-opacity: 0.726108; stroke: rgb(80, 80, 80); fill: none;" marker-end="" d="M705,317.5, 759,449.5"/><path class="link" style="stroke-width: 0.248549px; stroke-opacity: 0.124275; stroke: rgb(80, 80, 80); fill: none;" marker-end="" d="M705,361.5, 759,405.5"/><path class="link" style="stroke-width: 0.142324px; stroke-opacity: 0.0711621; stroke: rgb(80, 80, 80); fill: none;" marker-end="" d="M705,361.5, 759,449.5"/><path class="link" style="stroke-width: 1.27281px; stroke-opacity: 0.636407; stroke: rgb(80, 80, 80); fill: none;" marker-end="" d="M705,405.5, 759,405.5"/><path class="link" style="stroke-width: 1.68968px; stroke-opacity: 0.844842; stroke: rgb(80, 80, 80); fill: none;" marker-end="" d="M705,405.5, 759,449.5"/><path class="link" style="stroke-width: 0.5057px; stroke-opacity: 0.25285; stroke: rgb(80, 80, 80); fill: none;" marker-end="" d="M705,449.5, 759,405.5"/><path class="link" style="stroke-width: 1.69445px; stroke-opacity: 0.847226; stroke: rgb(80, 80, 80); fill: none;" marker-end="" d="M705,449.5, 759,449.5"/><path class="link" style="stroke-width: 1.75076px; stroke-opacity: 0.875379; stroke: rgb(80, 80, 80); fill: none;" marker-end="" d="M759,405.5, 813,361.5"/><path class="link" style="stroke-width: 1.35069px; stroke-opacity: 0.675344; stroke: rgb(80, 80, 80); fill: none;" marker-end="" d="M759,405.5, 813,405.5"/><path class="link" style="stroke-width: 0.00549719px; stroke-opacity: 0.00274859; stroke: rgb(80, 80, 80); fill: none;" marker-end="" d="M759,449.5, 813,361.5"/><path class="link" style="stroke-width: 0.163165px; stroke-opacity: 0.0815824; stroke: rgb(80, 80, 80); fill: none;" marker-end="" d="M759,449.5, 813,405.5"/><circle r="12" class="node" id="0_0" style="fill: rgb(0, 0, 0); stroke: rgb(0, 0, 0);" cx="705" cy="317.5"/><circle r="12" class="node" id="0_1" style="fill: rgb(0, 0, 0); stroke: rgb(0, 0, 0);" cx="705" cy="361.5"/><circle r="12" class="node" id="0_2" style="fill: rgb(0, 0, 0); stroke: rgb(0, 0, 0);" cx="705" cy="405.5"/><circle r="12" class="node" id="0_3" style="fill: rgb(0, 0, 0); stroke: rgb(0, 0, 0);" cx="705" cy="449.5"/><circle r="12" class="node" id="1_0" style="fill: rgb(0, 0, 0); stroke: rgb(0, 0, 0);" cx="759" cy="317.5"/><circle r="12" class="node" id="1_1" style="fill: rgb(0, 0, 0); stroke: rgb(0, 0, 0);" cx="759" cy="361.5"/><circle r="12" class="node" id="1_2" style="fill: rgb(0, 0, 0); stroke: rgb(0, 0, 0);" cx="759" cy="405.5"/><circle r="12" class="node" id="1_3" style="fill: rgb(0, 0, 0); stroke: rgb(0, 0, 0);" cx="759" cy="449.5"/><circle r="12" class="node" id="2_0" style="fill: rgb(0, 0, 0); stroke: rgb(0, 0, 0);" cx="813" cy="361.5"/><circle r="12" class="node" id="2_1" style="fill: rgb(0, 0, 0); stroke: rgb(0, 0, 0);" cx="813" cy="405.5"/><text class="text" dy=".35em" style="font-size: 12px;" x="670" y="493.5"/><text class="text" dy=".35em" style="font-size: 12px;" x="724" y="493.5"/><text class="text" dy=".35em" style="font-size: 12px;" x="778" y="493.5"/></g><defs><marker id="arrow" viewBox="0 -5 10 10" markerWidth="7" markerHeight="7" orient="auto" refX="45.599999999999994"><path d="M0,-5L10,0L0,5" style="stroke: rgb(80, 80, 80); fill: none;"/></marker></defs></svg>