<svg xmlns="http://www.w3.org/2000/svg" style="cursor: move;" viewBox="727.98 317.02 296.58 349.9"><g transform="translate(-810.3885176253045,-360.2534969611813) scale(2.222217457310183)"><path class="link" style="stroke-width: 0.308085px; stroke-opacity: 0.154043; stroke: rgb(80, 80, 80); fill: none;" marker-end="" d="M705,317.5, 759,383.5"/><path class="link" style="stroke-width: 0.366794px; stroke-opacity: 0.183397; stroke: rgb(80, 80, 80); fill: none;" marker-end="" d="M705,361.5, 759,383.5"/><path class="link" style="stroke-width: 1.38026px; stroke-opacity: 0.690129; stroke: rgb(80, 80, 80); fill: none;" marker-end="" d="M705,405.5, 759,383.5"/><path class="link" style="stroke-width: 1.18977px; stroke-opacity: 0.594884; stroke: rgb(80, 80, 80); fill: none;" marker-end="" d="M705,449.5, 759,383.5"/><path class="link" style="stroke-width: 0.0532384px; stroke-opacity: 0.0266192; stroke: rgb(80, 80, 80); fill: none;" marker-end="" d="M759,339.5, 813,361.5"/><path class="link" style="stroke-width: 0.417941px; stroke-opacity: 0.208971; stroke: rgb(80, 80, 80); fill: none;" marker-end="" d="M759,339.5, 813,405.5"/><path class="link" style="stroke-width: 1.69879px; stroke-opacity: 0.849396; stroke: rgb(80, 80, 80); fill: none;" marker-end="" d="M759,383.5, 813,361.5"/><path class="link" style="stroke-width: 0.703676px; stroke-opacity: 0.351838; stroke: rgb(80, 80, 80); fill: none;" marker-end="" d="M759,383.5, 813,405.5"/><path class="link" style="stroke-width: 0.399893px; stroke-opacity: 0.199947; stroke: rgb(80, 80, 80); fill: none;" marker-end="" d="M705,317.5, 759,427.5"/><path class="link" style="stroke-width: 1.91677px; stroke-opacity: 0.958384; stroke: rgb(80, 80, 80); fill: none;" marker-end="" d="M705,361.5, 759,427.5"/><path class="link" style="stroke-width: 1.69067px; stroke-opacity: 0.845334; stroke: rgb(80, 80, 80); fill: none;" marker-end="" d="M705,405.5, 759,427.5"/><path class="link" style="stroke-width: 0.866008px; stroke-opacity: 0.433004; stroke: rgb(80, 80, 80); fill: none;" marker-end="" d="M705,449.5, 759,427.5"/><path class="link" style="stroke-width: 0.879099px; stroke-opacity: 0.43955; stroke: rgb(80, 80, 80); fill: none;" marker-end="" d="M759,427.5, 813,361.5"/><path class="link" style="stroke-width: 1.95717px; stroke-opacity: 0.978584; stroke: rgb(80, 80, 80); fill: none;" marker-end="" d="M759,427.5, 813,405.5"/><circle r="12" class="node" id="0_0" style="fill: rgb(0, 0, 0); stroke: rgb(0, 0, 0);" cx="705" cy="317.5"/><circle r="12" class="node" id="0_1" style="fill: rgb(0, 0, 0); stroke: rgb(0, 0, 0);" cx="705" cy="361.5"/><circle r="12" class="node" id="0_2" style="fill: rgb(0, 0, 0); stroke: rgb(0, 0, 0);" cx="705" cy="405.5"/><circle r="12" class="node" id="0_3" style="fill: rgb(0, 0, 0); stroke: rgb(0, 0, 0);" cx="705" cy="449.5"/><circle r="12" class="node" id="1_0" style="fill: rgb(0, 0, 0); stroke: rgb(0, 0, 0);" cx="759" cy="339.5"/><circle r="12" class="node" id="1_1" style="fill: rgb(0, 0, 0); stroke: rgb(0, 0, 0);" cx="759" cy="383.5"/><circle r="12" class="node" id="1_2" style="fill: rgb(0, 0, 0); stroke: rgb(0, 0, 0);" cx="759" cy="427.5"/><circle r="12" class="node" id="2_0" style="fill: rgb(0, 0, 0); stroke: rgb(0, 0, 0);" cx="813" cy="361.5"/><circle r="12" class="node" id="2_1" style="fill: rgb(0, 0, 0); stroke: rgb(0, 0, 0);" cx="813" cy="405.5"/><text class="text" dy=".35em" style="font-size: 12px;" x="670" y="493.5"/><text class="text" dy=".35em" style="font-size: 12px;" x="724" y="493.5"/><text class="text" dy=".35em" style="font-size: 12px;" x="778" y="493.5"/></g><defs><marker id="arrow" viewBox="0 -5 10 10" markerWidth="7" markerHeight="7" orient="auto" refX="45.599999999999994"><path d="M0,-5L10,0L0,5" style="stroke: rgb(80, 80, 80); fill: none;"/></marker></defs></svg>