<svg xmlns="http://www.w3.org/2000/svg" style="cursor: move;" viewBox="683.32 315.67 259.73 306.43"><g transform="translate(-663.3052887414303,-277.1477510892163) scale(1.9453098948245662)"><path class="link" style="stroke-width: 1.25022px; stroke-opacity: 0.625109; stroke: rgb(80, 80, 80); fill: none;" marker-end="" d="M705,317.5, 759,383.5"/><path class="link" style="stroke-width: 1.3906px; stroke-opacity: 0.695301; stroke: rgb(80, 80, 80); fill: none;" marker-end="" d="M705,361.5, 759,383.5"/><path class="link" style="stroke-width: 1.40967px; stroke-opacity: 0.704837; stroke: rgb(80, 80, 80); fill: none;" marker-end="" d="M705,405.5, 759,383.5"/><path class="link" style="stroke-width: 0.658489px; stroke-opacity: 0.329244; stroke: rgb(80, 80, 80); fill: none;" marker-end="" d="M705,449.5, 759,383.5"/><path class="link" style="stroke-width: 1.50729px; stroke-opacity: 0.753643; stroke: rgb(80, 80, 80); fill: none;" marker-end="" d="M759,339.5, 813,361.5"/><path class="link" style="stroke-width: 1.8676px; stroke-opacity: 0.933799; stroke: rgb(80, 80, 80); fill: none;" marker-end="" d="M759,339.5, 813,405.5"/><path class="link" style="stroke-width: 0.936456px; stroke-opacity: 0.468228; stroke: rgb(80, 80, 80); fill: none;" marker-end="" d="M759,383.5, 813,361.5"/><path class="link" style="stroke-width: 1.11182px; stroke-opacity: 0.555911; stroke: rgb(80, 80, 80); fill: none;" marker-end="" d="M759,383.5, 813,405.5"/><path class="link" style="stroke-width: 0.199608px; stroke-opacity: 0.0998038; stroke: rgb(80, 80, 80); fill: none;" marker-end="" d="M705,317.5, 759,427.5"/><path class="link" style="stroke-width: 1.18217px; stroke-opacity: 0.591087; stroke: rgb(80, 80, 80); fill: none;" marker-end="" d="M705,361.5, 759,427.5"/><path class="link" style="stroke-width: 0.63862px; stroke-opacity: 0.31931; stroke: rgb(80, 80, 80); fill: none;" marker-end="" d="M705,405.5, 759,427.5"/><path class="link" style="stroke-width: 1.1384px; stroke-opacity: 0.5692; stroke: rgb(80, 80, 80); fill: none;" marker-end="" d="M705,449.5, 759,427.5"/><path class="link" style="stroke-width: 0.39717px; stroke-opacity: 0.198585; stroke: rgb(80, 80, 80); fill: none;" marker-end="" d="M759,427.5, 813,361.5"/><path class="link" style="stroke-width: 1.66167px; stroke-opacity: 0.830837; stroke: rgb(80, 80, 80); fill: none;" marker-end="" d="M759,427.5, 813,405.5"/><circle r="12" class="node" id="0_0" style="fill: rgb(0, 0, 0); stroke: rgb(0, 0, 0);" cx="705" cy="317.5"/><circle r="12" class="node" id="0_1" style="fill: rgb(0, 0, 0); stroke: rgb(0, 0, 0);" cx="705" cy="361.5"/><circle r="12" class="node" id="0_2" style="fill: rgb(0, 0, 0); stroke: rgb(0, 0, 0);" cx="705" cy="405.5"/><circle r="12" class="node" id="0_3" style="fill: rgb(0, 0, 0); stroke: rgb(0, 0, 0);" cx="705" cy="449.5"/><circle r="12" class="node" id="1_0" style="fill: rgb(0, 0, 0); stroke: rgb(0, 0, 0);" cx="759" cy="339.5"/><circle r="12" class="node" id="1_1" style="fill: rgb(0, 0, 0); stroke: rgb(0, 0, 0);" cx="759" cy="383.5"/><circle r="12" class="node" id="1_2" style="fill: rgb(0, 0, 0); stroke: rgb(0, 0, 0);" cx="759" cy="427.5"/><circle r="12" class="node" id="2_0" style="fill: rgb(0, 0, 0); stroke: rgb(0, 0, 0);" cx="813" cy="361.5"/><circle r="12" class="node" id="2_1" style="fill: rgb(0, 0, 0); stroke: rgb(0, 0, 0);" cx="813" cy="405.5"/><text class="text" dy=".35em" style="font-size: 12px;" x="670" y="493.5"/><text class="text" dy=".35em" style="font-size: 12px;" x="724" y="493.5"/><text class="text" dy=".35em" style="font-size: 12px;" x="778" y="493.5"/></g><defs><marker id="arrow" viewBox="0 -5 10 10" markerWidth="7" markerHeight="7" orient="auto" refX="45.599999999999994"><path d="M0,-5L10,0L0,5" style="stroke: rgb(80, 80, 80); fill: none;"/></marker></defs></svg>