<svg xmlns="http://www.w3.org/2000/svg" style="cursor: move;" viewBox="683.32 315.67 259.73 306.43"><g transform="translate(-663.3052887414303,-277.1477510892163) scale(1.9453098948245662)"><path class="link" style="stroke-width: 1.13px; stroke-opacity: 0.565002; stroke: rgb(80, 80, 80); fill: none;" marker-end="" d="M705,317.5, 759,383.5"/><path class="link" style="stroke-width: 0.806275px; stroke-opacity: 0.403137; stroke: rgb(80, 80, 80); fill: none;" marker-end="" d="M705,361.5, 759,383.5"/><path class="link" style="stroke-width: 1.66361px; stroke-opacity: 0.831803; stroke: rgb(80, 80, 80); fill: none;" marker-end="" d="M705,405.5, 759,383.5"/><path class="link" style="stroke-width: 0.142511px; stroke-opacity: 0.0712554; stroke: rgb(80, 80, 80); fill: none;" marker-end="" d="M705,449.5, 759,383.5"/><path class="link" style="stroke-width: 0.152155px; stroke-opacity: 0.0760776; stroke: rgb(80, 80, 80); fill: none;" marker-end="" d="M759,339.5, 813,361.5"/><path class="link" style="stroke-width: 1.70895px; stroke-opacity: 0.854474; stroke: rgb(80, 80, 80); fill: none;" marker-end="" d="M759,339.5, 813,405.5"/><path class="link" style="stroke-width: 1.89211px; stroke-opacity: 0.946057; stroke: rgb(80, 80, 80); fill: none;" marker-end="" d="M759,383.5, 813,361.5"/><path class="link" style="stroke-width: 1.36482px; stroke-opacity: 0.682408; stroke: rgb(80, 80, 80); fill: none;" marker-end="" d="M759,383.5, 813,405.5"/><path class="link" style="stroke-width: 0.621082px; stroke-opacity: 0.310541; stroke: rgb(80, 80, 80); fill: none;" marker-end="" d="M705,317.5, 759,427.5"/><path class="link" style="stroke-width: 0.919393px; stroke-opacity: 0.459696; stroke: rgb(80, 80, 80); fill: none;" marker-end="" d="M705,361.5, 759,427.5"/><path class="link" style="stroke-width: 0.816097px; stroke-opacity: 0.408049; stroke: rgb(80, 80, 80); fill: none;" marker-end="" d="M705,405.5, 759,427.5"/><path class="link" style="stroke-width: 0.561272px; stroke-opacity: 0.280636; stroke: rgb(80, 80, 80); fill: none;" marker-end="" d="M705,449.5, 759,427.5"/><path class="link" style="stroke-width: 0.0972733px; stroke-opacity: 0.0486366; stroke: rgb(80, 80, 80); fill: none;" marker-end="" d="M759,427.5, 813,361.5"/><path class="link" style="stroke-width: 0.245748px; stroke-opacity: 0.122874; stroke: rgb(80, 80, 80); fill: none;" marker-end="" d="M759,427.5, 813,405.5"/><circle r="12" class="node" id="0_0" style="fill: rgb(0, 0, 0); stroke: rgb(0, 0, 0);" cx="705" cy="317.5"/><circle r="12" class="node" id="0_1" style="fill: rgb(0, 0, 0); stroke: rgb(0, 0, 0);" cx="705" cy="361.5"/><circle r="12" class="node" id="0_2" style="fill: rgb(0, 0, 0); stroke: rgb(0, 0, 0);" cx="705" cy="405.5"/><circle r="12" class="node" id="0_3" style="fill: rgb(0, 0, 0); stroke: rgb(0, 0, 0);" cx="705" cy="449.5"/><circle r="12" class="node" id="1_0" style="fill: rgb(0, 0, 0); stroke: rgb(0, 0, 0);" cx="759" cy="339.5"/><circle r="12" class="node" id="1_1" style="fill: rgb(0, 0, 0); stroke: rgb(0, 0, 0);" cx="759" cy="383.5"/><circle r="12" class="node" id="1_2" style="fill: rgb(0, 0, 0); stroke: rgb(0, 0, 0);" cx="759" cy="427.5"/><circle r="12" class="node" id="2_0" style="fill: rgb(0, 0, 0); stroke: rgb(0, 0, 0);" cx="813" cy="361.5"/><circle r="12" class="node" id="2_1" style="fill: rgb(0, 0, 0); stroke: rgb(0, 0, 0);" cx="813" cy="405.5"/><text class="text" dy=".35em" style="font-size: 12px;" x="670" y="493.5"/><text class="text" dy=".35em" style="font-size: 12px;" x="724" y="493.5"/><text class="text" dy=".35em" style="font-size: 12px;" x="778" y="493.5"/></g><defs><marker id="arrow" viewBox="0 -5 10 10" markerWidth="7" markerHeight="7" orient="auto" refX="45.599999999999994"><path d="M0,-5L10,0L0,5" style="stroke: rgb(80, 80, 80); fill: none;"/></marker></defs></svg>