<svg xmlns="http://www.w3.org/2000/svg" style="cursor: move;" viewBox="683.32 315.67 259.73 306.43"><g transform="translate(-663.3052887414303,-277.1477510892163) scale(1.9453098948245662)"><path class="link" style="stroke-width: 1.0335px; stroke-opacity: 0.516752; stroke: rgb(80, 80, 80); fill: none;" marker-end="" d="M705,317.5, 759,405.5"/><path class="link" style="stroke-width: 0.623575px; stroke-opacity: 0.311787; stroke: rgb(80, 80, 80); fill: none;" marker-end="" d="M705,361.5, 759,405.5"/><path class="link" style="stroke-width: 0.228174px; stroke-opacity: 0.114087; stroke: rgb(80, 80, 80); fill: none;" marker-end="" d="M705,405.5, 759,405.5"/><path class="link" style="stroke-width: 1.7575px; stroke-opacity: 0.878749; stroke: rgb(80, 80, 80); fill: none;" marker-end="" d="M705,449.5, 759,405.5"/><path class="link" style="stroke-width: 1.21055px; stroke-opacity: 0.605277; stroke: rgb(80, 80, 80); fill: none;" marker-end="" d="M759,361.5, 813,361.5"/><path class="link" style="stroke-width: 1.13057px; stroke-opacity: 0.565285; stroke: rgb(80, 80, 80); fill: none;" marker-end="" d="M759,361.5, 813,405.5"/><path class="link" style="stroke-width: 0.270563px; stroke-opacity: 0.135282; stroke: rgb(80, 80, 80); fill: none;" marker-end="" d="M759,405.5, 813,361.5"/><path class="link" style="stroke-width: 0.272178px; stroke-opacity: 0.136089; stroke: rgb(80, 80, 80); fill: none;" marker-end="" d="M759,405.5, 813,405.5"/><circle r="12" class="node" id="0_0" style="fill: rgb(0, 0, 0); stroke: rgb(0, 0, 0);" cx="705" cy="317.5"/><circle r="12" class="node" id="0_1" style="fill: rgb(0, 0, 0); stroke: rgb(0, 0, 0);" cx="705" cy="361.5"/><circle r="12" class="node" id="0_2" style="fill: rgb(0, 0, 0); stroke: rgb(0, 0, 0);" cx="705" cy="405.5"/><circle r="12" class="node" id="0_3" style="fill: rgb(0, 0, 0); stroke: rgb(0, 0, 0);" cx="705" cy="449.5"/><circle r="12" class="node" id="1_0" style="fill: rgb(0, 0, 0); stroke: rgb(0, 0, 0);" cx="759" cy="361.5"/><circle r="12" class="node" id="1_1" style="fill: rgb(0, 0, 0); stroke: rgb(0, 0, 0);" cx="759" cy="405.5"/><circle r="12" class="node" id="2_0" style="fill: rgb(0, 0, 0); stroke: rgb(0, 0, 0);" cx="813" cy="361.5"/><circle r="12" class="node" id="2_1" style="fill: rgb(0, 0, 0); stroke: rgb(0, 0, 0);" cx="813" cy="405.5"/><text class="text" dy=".35em" style="font-size: 12px;" x="670" y="493.5"/><text class="text" dy=".35em" style="font-size: 12px;" x="724" y="493.5"/><text class="text" dy=".35em" style="font-size: 12px;" x="778" y="493.5"/></g><defs><marker id="arrow" viewBox="0 -5 10 10" markerWidth="7" markerHeight="7" orient="auto" refX="45.599999999999994"><path d="M0,-5L10,0L0,5" style="stroke: rgb(80, 80, 80); fill: none;"/></marker></defs></svg>