<svg xmlns="http://www.w3.org/2000/svg" style="cursor: move;" viewBox="683.32 315.67 259.73 306.43"><g transform="translate(-663.3052887414303,-277.1477510892163) scale(1.9453098948245662)"><path class="link" style="stroke-width: 0.398628px; stroke-opacity: 0.199314; stroke: rgb(80, 80, 80); fill: none;" marker-end="" d="M705,317.5, 759,383.5"/><path class="link" style="stroke-width: 0.475134px; stroke-opacity: 0.237567; stroke: rgb(80, 80, 80); fill: none;" marker-end="" d="M705,361.5, 759,383.5"/><path class="link" style="stroke-width: 1.74836px; stroke-opacity: 0.874181; stroke: rgb(80, 80, 80); fill: none;" marker-end="" d="M705,405.5, 759,383.5"/><path class="link" style="stroke-width: 1.16873px; stroke-opacity: 0.584364; stroke: rgb(80, 80, 80); fill: none;" marker-end="" d="M705,449.5, 759,383.5"/><path class="link" style="stroke-width: 1.2315px; stroke-opacity: 0.61575; stroke: rgb(80, 80, 80); fill: none;" marker-end="" d="M759,339.5, 813,361.5"/><path class="link" style="stroke-width: 1.21286px; stroke-opacity: 0.606431; stroke: rgb(80, 80, 80); fill: none;" marker-end="" d="M759,339.5, 813,405.5"/><path class="link" style="stroke-width: 0.433706px; stroke-opacity: 0.216853; stroke: rgb(80, 80, 80); fill: none;" marker-end="" d="M759,383.5, 813,361.5"/><path class="link" style="stroke-width: 0.290258px; stroke-opacity: 0.145129; stroke: rgb(80, 80, 80); fill: none;" marker-end="" d="M759,383.5, 813,405.5"/><path class="link" style="stroke-width: 1.06383px; stroke-opacity: 0.531916; stroke: rgb(80, 80, 80); fill: none;" marker-end="" d="M705,317.5, 759,427.5"/><path class="link" style="stroke-width: 1.05237px; stroke-opacity: 0.526184; stroke: rgb(80, 80, 80); fill: none;" marker-end="" d="M705,361.5, 759,427.5"/><path class="link" style="stroke-width: 0.574266px; stroke-opacity: 0.287133; stroke: rgb(80, 80, 80); fill: none;" marker-end="" d="M705,405.5, 759,427.5"/><path class="link" style="stroke-width: 0.709093px; stroke-opacity: 0.354547; stroke: rgb(80, 80, 80); fill: none;" marker-end="" d="M705,449.5, 759,427.5"/><path class="link" style="stroke-width: 1.64734px; stroke-opacity: 0.823671; stroke: rgb(80, 80, 80); fill: none;" marker-end="" d="M759,427.5, 813,361.5"/><path class="link" style="stroke-width: 1.9601px; stroke-opacity: 0.980052; stroke: rgb(80, 80, 80); fill: none;" marker-end="" d="M759,427.5, 813,405.5"/><circle r="12" class="node" id="0_0" style="fill: rgb(0, 0, 0); stroke: rgb(0, 0, 0);" cx="705" cy="317.5"/><circle r="12" class="node" id="0_1" style="fill: rgb(0, 0, 0); stroke: rgb(0, 0, 0);" cx="705" cy="361.5"/><circle r="12" class="node" id="0_2" style="fill: rgb(0, 0, 0); stroke: rgb(0, 0, 0);" cx="705" cy="405.5"/><circle r="12" class="node" id="0_3" style="fill: rgb(0, 0, 0); stroke: rgb(0, 0, 0);" cx="705" cy="449.5"/><circle r="12" class="node" id="1_0" style="fill: rgb(0, 0, 0); stroke: rgb(0, 0, 0);" cx="759" cy="339.5"/><circle r="12" class="node" id="1_1" style="fill: rgb(0, 0, 0); stroke: rgb(0, 0, 0);" cx="759" cy="383.5"/><circle r="12" class="node" id="1_2" style="fill: rgb(0, 0, 0); stroke: rgb(0, 0, 0);" cx="759" cy="427.5"/><circle r="12" class="node" id="2_0" style="fill: rgb(0, 0, 0); stroke: rgb(0, 0, 0);" cx="813" cy="361.5"/><circle r="12" class="node" id="2_1" style="fill: rgb(0, 0, 0); stroke: rgb(0, 0, 0);" cx="813" cy="405.5"/><text class="text" dy=".35em" style="font-size: 12px;" x="670" y="493.5"/><text class="text" dy=".35em" style="font-size: 12px;" x="724" y="493.5"/><text class="text" dy=".35em" style="font-size: 12px;" x="778" y="493.5"/></g><defs><marker id="arrow" viewBox="0 -5 10 10" markerWidth="7" markerHeight="7" orient="auto" refX="45.599999999999994"><path d="M0,-5L10,0L0,5" style="stroke: rgb(80, 80, 80); fill: none;"/></marker></defs></svg>