<svg xmlns="http://www.w3.org/2000/svg" style="cursor: move;" viewBox="897.42 414.58 124.85 146.77"><g transform="translate(23.396828966293526,36.89499952377059) scale(0.9526379980439401)"><path class="link" style="stroke-width: 1.08px; stroke-opacity: 1; stroke: rgb(80, 80, 80); fill: none;" marker-end="" d="M930,409, 983,473.5"/><path class="link" style="stroke-width: 1.08px; stroke-opacity: 1; stroke: rgb(80, 80, 80); fill: none;" marker-end="" d="M930,409, 983,516.5"/><path class="link" style="stroke-width: 1.08px; stroke-opacity: 1; stroke: rgb(80, 80, 80); fill: none;" marker-end="" d="M930,452, 983,473.5"/><path class="link" style="stroke-width: 1.08px; stroke-opacity: 1; stroke: rgb(80, 80, 80); fill: none;" marker-end="" d="M930,452, 983,516.5"/><path class="link" style="stroke-width: 1.08px; stroke-opacity: 1; stroke: rgb(80, 80, 80); fill: none;" marker-end="" d="M930,495, 983,473.5"/><path class="link" style="stroke-width: 1.08px; stroke-opacity: 1; stroke: rgb(80, 80, 80); fill: none;" marker-end="" d="M930,495, 983,516.5"/><path class="link" style="stroke-width: 1.08px; stroke-opacity: 1; stroke: rgb(80, 80, 80); fill: none;" marker-end="" d="M983,430.5, 1036,452"/><path class="link" style="stroke-width: 1.08px; stroke-opacity: 1; stroke: rgb(80, 80, 80); fill: none;" marker-end="" d="M983,430.5, 1036,495"/><path class="link" style="stroke-width: 1.08px; stroke-opacity: 1; stroke: rgb(80, 80, 80); fill: none;" marker-end="" d="M983,473.5, 1036,452"/><path class="link" style="stroke-width: 1.08px; stroke-opacity: 1; stroke: rgb(80, 80, 80); fill: none;" marker-end="" d="M983,473.5, 1036,495"/><path class="link" style="stroke-width: 1.08px; stroke-opacity: 1; stroke: rgb(80, 80, 80); fill: none;" marker-end="" d="M983,516.5, 1036,452"/><path class="link" style="stroke-width: 1.08px; stroke-opacity: 1; stroke: rgb(80, 80, 80); fill: none;" marker-end="" d="M983,516.5, 1036,495"/><path class="link" style="stroke-width: 1.08px; stroke-opacity: 1; stroke: rgb(80, 80, 80); fill: none;" marker-end="" d="M930,538, 983,473.5"/><path class="link" style="stroke-width: 1.08px; stroke-opacity: 1; stroke: rgb(80, 80, 80); fill: none;" marker-end="" d="M930,538, 983,516.5"/><path class="link" style="stroke-width: 1.08px; stroke-opacity: 1; stroke: rgb(80, 80, 80); fill: none;" marker-end="" d="M930,409, 983,430.5"/><path class="link" style="stroke-width: 1.08px; stroke-opacity: 1; stroke: rgb(80, 80, 80); fill: none;" marker-end="" d="M930,452, 983,430.5"/><path class="link" style="stroke-width: 1.08px; stroke-opacity: 1; stroke: rgb(80, 80, 80); fill: none;" marker-end="" d="M930,495, 983,430.5"/><path class="link" style="stroke-width: 1.08px; stroke-opacity: 1; stroke: rgb(80, 80, 80); fill: none;" marker-end="" d="M930,538, 983,430.5"/><circle r="11.5" class="node" id="0_0" style="fill: rgb(136, 170, 255); stroke: rgb(136, 170, 255);" cx="930" cy="409"/><circle r="11.5" class="node" id="0_1" style="fill: rgb(136, 170, 255); stroke: rgb(136, 170, 255);" cx="930" cy="452"/><circle r="11.5" class="node" id="0_2" style="fill: rgb(136, 170, 255); stroke: rgb(136, 170, 255);" cx="930" cy="495"/><circle r="11.5" class="node" id="0_3" style="fill: rgb(136, 170, 255); stroke: rgb(136, 170, 255);" cx="930" cy="538"/><circle r="11.5" class="node" id="1_0" style="fill: rgb(136, 170, 255); stroke: rgb(136, 170, 255);" cx="983" cy="430.5"/><circle r="11.5" class="node" id="1_1" style="fill: rgb(136, 170, 255); stroke: rgb(136, 170, 255);" cx="983" cy="473.5"/><circle r="11.5" class="node" id="1_2" style="fill: rgb(136, 170, 255); stroke: rgb(136, 170, 255);" cx="983" cy="516.5"/><circle r="11.5" class="node" id="2_0" style="fill: rgb(136, 170, 255); stroke: rgb(136, 170, 255);" cx="1036" cy="452"/><circle r="11.5" class="node" id="2_1" style="fill: rgb(136, 170, 255); stroke: rgb(136, 170, 255);" cx="1036" cy="495"/><text class="text" dy=".35em" style="font-size: 12px;" x="895" y="581"/><text class="text" dy=".35em" style="font-size: 12px;" x="948" y="581"/><text class="text" dy=".35em" style="font-size: 12px;" x="1001" y="581"/></g><defs><marker id="arrow" viewBox="0 -5 10 10" markerWidth="7" markerHeight="7" orient="auto" refX="44.199999999999996"><path d="M0,-5L10,0L0,5" style="stroke: rgb(80, 80, 80); fill: none;"/></marker></defs></svg>
