<svg version="1.1" id="svg1" xml:space="preserve" inkscape:version="1.3.2 (091e20e, 2023-11-25)" sodipodi:docname="thief.svg" xmlns:inkscape="http://www.inkscape.org/namespaces/inkscape" xmlns:sodipodi="http://sodipodi.sourceforge.net/DTD/sodipodi-0.dtd" xmlns="http://www.w3.org/2000/svg" xmlns:svg="http://www.w3.org/2000/svg" viewBox="45.78 80.75 118.58 135.5"><sodipodi:namedview id="namedview1" pagecolor="#505050" bordercolor="#eeeeee" borderopacity="1" inkscape:showpageshadow="0" inkscape:pageopacity="0" inkscape:pagecheckerboard="0" inkscape:deskcolor="#505050" inkscape:document-units="mm" inkscape:zoom="0.2102413" inkscape:cx="394.78447" inkscape:cy="561.25984" inkscape:window-width="1440" inkscape:window-height="449" inkscape:window-x="0" inkscape:window-y="37" inkscape:window-maximized="0" inkscape:current-layer="layer1"/><defs id="defs1"/><g inkscape:label="Livello 1" inkscape:groupmode="layer" id="layer1"><path fill="#888888" d="m 105.08263,148.5 a 33.866667,33.866667 0 1 0 0,-67.733335 33.866667,33.866667 0 1 0 0,67.733335 m -12.09146,12.7 c -26.061458,0 -47.175208,21.11375 -47.175208,47.17521 0,4.33917 3.518958,7.85813 7.858125,7.85813 H 156.49117 c 4.33916,0 7.85812,-3.51896 7.85812,-7.85813 0,-26.06146 -21.11374,-47.17521 -47.1752,-47.17521 z" id="path1" style="stroke-width:0.264583;fill:#000000;fill-opacity:1"/><path fill="#888888" d="m 90.918908,134.25649 q -4.169429,0 -7.969361,-1.57451 -3.799937,-1.57451 -6.828077,-4.63607 -3.924151,-3.93644 -5.680204,-9.31435 -1.756152,-5.37791 -1.759395,-11.15461 0,-6.82299 3.106652,-11.063791 3.106656,-4.240642 9.074686,-4.244236 1.144531,0 2.168098,0.220192 1.02356,0.220191 2.08309,0.654455 l 19.539173,7.78517 19.53909,-7.78517 q 1.06287,-0.437323 2.08643,-0.654455 1.02356,-0.217132 2.16484,-0.220192 5.96794,0 9.0746,4.244236 3.10665,4.244241 3.10665,11.063791 0,5.77326 -1.75606,11.15461 -1.75605,5.38143 -5.68354,9.31435 -3.0249,3.06156 -6.82474,4.63607 -3.79993,1.57451 -7.9727,1.57451 -5.39572,0 -9.15635,-2.62424 l -3.76072,-2.62424 h -1.63509 l -3.76063,2.62424 q -3.760722,2.62424 -9.156442,2.62424 m 3.024897,-13.99583 q 2.370823,0 3.760632,-1.17917 1.389809,-1.17915 1.389809,-3.19459 0,-3.41149 -4.251187,-6.51502 -4.251188,-3.10353 -8.911168,-3.10712 -2.370822,0 -3.760632,1.18268 -1.38981,1.18267 -1.38981,3.19107 0,3.41142 4.251188,6.51855 4.251184,3.10712 8.911168,3.1036 m 21.419445,0 q 4.65997,0 8.91116,-3.10705 4.25119,-3.10712 4.25119,-6.5151 0,-2.09938 -1.3505,-3.23649 -1.35061,-1.13726 -3.7967,-1.13726 -4.66322,0 -8.91441,3.10712 -4.25118,3.10712 -4.25118,6.51502 0,2.01192 1.3506,3.19459 1.3505,1.18269 3.79984,1.17917" id="path1-4" style="fill:#ffffff;fill-opacity:1;stroke-width:3.38262"/></g></svg>